<svg xmlns="http://www.w3.org/2000/svg" width="1024" height="500" viewBox="0 0 1024 500">
  <!-- Gradient background -->
  <defs>
    <linearGradient id="bgGradient" x1="0%" y1="0%" x2="100%" y2="100%">
      <stop offset="0%" style="stop-color:#0F172A"/>
      <stop offset="100%" style="stop-color:#1E293B"/>
    </linearGradient>
  </defs>
  <rect width="1024" height="500" fill="url(#bgGradient)"/>

  <!-- Decorative water droplets in background -->
  <ellipse cx="150" cy="100" rx="40" ry="55" fill="#06B6D4" opacity="0.15"/>
  <ellipse cx="900" cy="400" rx="50" ry="70" fill="#06B6D4" opacity="0.15"/>
  <ellipse cx="80" cy="380" rx="25" ry="35" fill="#22D3EE" opacity="0.1"/>
  <ellipse cx="950" cy="120" rx="30" ry="42" fill="#22D3EE" opacity="0.1"/>

  <!-- Main water droplet icon -->
  <g transform="translate(180, 120)">
    <path
      d="M130 260c-55 0-100-45-100-100 0-30 15-58 42-80 27-22 48-50 58-80 10 30 31 58 58 80 27 22 42 50 42 80 0 55-45 100-100 100z"
      fill="#06B6D4"/>
    <path
      d="M94 180c0-20 10-38 28-52 12-10 22-22 30-36 2 8 6 15 12 22 8 10 16 18 20 28 4 8 6 18 6 28 0 28-22 50-50 50-26 0-46-18-46-40z"
      fill="#22D3EE"
      opacity="0.4"/>
    <ellipse cx="214" cy="60" rx="24" ry="32" fill="#06B6D4" opacity="0.6"/>
  </g>

  <!-- App name -->
  <text x="480" y="220" font-family="system-ui, -apple-system, sans-serif" font-size="72" font-weight="bold" fill="#FFFFFF">DripSync</text>

  <!-- Tagline -->
  <text x="480" y="290" font-family="system-ui, -apple-system, sans-serif" font-size="28" fill="#94A3B8">Stay Hydrated, Stay Healthy</text>

  <!-- Feature highlights -->
  <text x="480" y="360" font-family="system-ui, -apple-system, sans-serif" font-size="20" fill="#06B6D4">Watch + Phone | Health Connect | Simple Tracking</text>
</svg>
