<svg xmlns="http://www.w3.org/2000/svg" width="512" height="512" viewBox="0 0 512 512">
  <!-- Background with rounded corners for Play Store -->
  <rect width="512" height="512" rx="64" fill="#0F172A"/>

  <!-- Main water droplet - centered, filled -->
  <path
    d="M256 380c-55 0-100-45-100-100 0-30 15-58 42-80 27-22 48-50 58-80 10 30 31 58 58 80 27 22 42 50 42 80 0 55-45 100-100 100z"
    fill="#06B6D4"/>

  <!-- Inner highlight for 3D effect -->
  <path
    d="M220 300c0-20 10-38 28-52 12-10 22-22 30-36 2 8 6 15 12 22 8 10 16 18 20 28 4 8 6 18 6 28 0 28-22 50-50 50-26 0-46-18-46-40z"
    fill="#22D3EE"
    opacity="0.4"/>

  <!-- Small secondary droplet -->
  <ellipse cx="340" cy="180" rx="30" ry="40" fill="#06B6D4" opacity="0.6"/>
</svg>
